<svg width="720" height="168" viewBox="0 0 720 168" fill="none" xmlns="http://www.w3.org/2000/svg">
<path fill-rule="evenodd" clip-rule="evenodd" d="M103.002 113.563V115.645H148.618V113.563H118.973L135.038 72.3974H182.09L197.642 113.573H181.202V115.645H213.046V113.573H200.014L160.022 7.52539H156.466L116.182 113.563H103.002ZM148.618 70.3214H181.202L164.91 27.2214L148.618 70.3214ZM365.648 80.6594C365.648 86.5394 366.04 91.668 366.824 96.0454C367.608 100.423 368.914 104.081 370.744 107.021C372.573 109.961 374.925 112.15 377.8 113.587C380.674 115.025 384.235 115.743 388.482 115.743C392.663 115.743 396.191 115.025 399.066 113.587C402.006 112.15 404.39 109.961 406.22 107.021C408.049 104.081 409.356 100.423 410.14 96.0454C410.924 91.668 411.316 86.5394 411.316 80.6594C411.316 76.1514 411.022 71.8067 410.434 67.6254C409.846 63.3787 408.702 59.622 407.004 56.3554C405.37 53.0234 403.051 50.3774 400.046 48.4174C397.106 46.4574 393.251 45.4774 388.482 45.4774C383.712 45.4774 379.825 46.4574 376.82 48.4174C373.88 50.3774 371.56 53.0234 369.862 56.3554C368.228 59.622 367.118 63.3787 366.53 67.6254C365.942 71.8067 365.648 76.1514 365.648 80.6594ZM354.378 80.6594C354.378 75.4327 355.39 70.598 357.416 66.1554C359.506 61.7127 362.152 57.858 365.354 54.5914C368.62 51.3247 372.279 48.7767 376.33 46.9473C380.38 45.0527 384.431 44.1054 388.482 44.1054C392.794 44.1054 396.975 45.0527 401.026 46.9473C405.142 48.7767 408.8 51.3247 412.002 54.5914C415.203 57.858 417.751 61.7127 419.646 66.1554C421.606 70.598 422.586 75.4327 422.586 80.6594C422.586 85.2327 421.704 89.708 419.94 94.0854C418.176 98.4627 415.758 102.35 412.688 105.747C409.617 109.145 405.991 111.889 401.81 113.979C397.694 116.07 393.251 117.115 388.482 117.115C383.582 117.115 379.041 116.103 374.86 114.077C370.678 112.052 367.052 109.373 363.982 106.041C360.976 102.644 358.624 98.7567 356.926 94.3794C355.227 89.9367 354.378 85.3633 354.378 80.6594ZM311.093 77.5234H302.077V47.2414C302.926 47.1107 303.939 47.0453 305.115 47.0453C306.356 46.98 307.565 46.9473 308.741 46.9473C310.44 46.9473 312.138 47.1107 313.837 47.4374C315.601 47.764 317.169 48.45 318.541 49.4954C319.978 50.5407 321.122 52.1087 321.971 54.1994C322.886 56.2247 323.343 58.936 323.343 62.3334C323.343 65.3387 323.049 67.8214 322.461 69.7814C321.873 71.7414 321.024 73.3094 319.913 74.4854C318.868 75.596 317.594 76.38 316.091 76.8373C314.588 77.2947 312.922 77.5234 311.093 77.5234ZM292.277 113.573H281.399V115.645H312.955V113.573H302.077V78.8953H311.877C312.988 78.8953 314.294 78.9934 315.797 79.1894C317.3 79.32 318.737 79.81 320.109 80.6594C321.546 81.5087 322.788 82.848 323.833 84.6774C324.878 86.5067 325.532 89.0547 325.793 92.3214L326.479 101.239C326.675 103.722 327.002 105.911 327.459 107.805C327.982 109.635 328.766 111.203 329.811 112.509C330.856 113.751 332.228 114.698 333.927 115.351C335.691 116.005 337.88 116.331 340.493 116.331C341.865 116.331 343.008 116.233 343.923 116.037C344.903 115.907 345.72 115.711 346.373 115.449C347.026 115.188 347.549 114.927 347.941 114.665C348.398 114.339 348.79 114.045 349.117 113.783L348.235 112.705C347.516 113.424 346.7 113.947 345.785 114.273C344.87 114.6 343.988 114.763 343.139 114.763C341.244 114.763 339.872 114.077 339.023 112.705C338.174 111.333 337.553 109.798 337.161 108.099C336.9 106.989 336.704 105.617 336.573 103.983C336.508 102.35 336.41 100.651 336.279 98.8874C336.214 97.1234 336.083 95.4247 335.887 93.7914C335.756 92.0927 335.495 90.59 335.103 89.2834C334.45 87.062 333.339 85.2654 331.771 83.8934C330.203 82.456 328.472 81.3127 326.577 80.4634C324.748 79.614 322.918 79.026 321.089 78.6994C319.325 78.3074 317.92 78.046 316.875 77.9154V77.7194C320.664 77.262 323.702 76.38 325.989 75.0734C328.276 73.7014 330.007 72.2314 331.183 70.6634C332.424 69.03 333.208 67.462 333.535 65.9594C333.927 64.3913 334.123 63.1174 334.123 62.1374C334.123 60.1774 333.633 58.0867 332.653 55.8654C331.738 53.644 330.138 51.6514 327.851 49.8874C325.303 47.862 322.559 46.6534 319.619 46.2614C316.679 45.804 313.282 45.5754 309.427 45.5754C308.643 45.5754 307.859 45.608 307.075 45.6734H304.723L302.371 45.8694H300.019H281.399V47.2414H292.277V113.573ZM224.745 113.563H213.867V115.645H273.647V94.1834H272.569C272.373 95.686 271.916 97.5807 271.197 99.8674C270.479 102.154 269.368 104.375 267.865 106.531C266.363 108.622 264.403 110.451 261.985 112.019C259.633 113.522 256.661 113.563 253.067 113.563H234.545V78.8953H242.483C244.835 78.8953 246.73 79.32 248.167 80.1693C249.67 80.9534 250.846 82.0313 251.695 83.4034C252.61 84.7754 253.296 86.3434 253.753 88.1074C254.276 89.8714 254.766 91.7007 255.223 93.5954H256.301V63.1174H255.223C254.505 66.0574 253.753 68.4747 252.969 70.3694C252.251 72.1987 251.336 73.6687 250.225 74.7794C249.18 75.8247 247.906 76.5434 246.403 76.9354C244.901 77.3274 243.071 77.5234 240.915 77.5234H234.545V47.2414H250.813C253.492 47.2414 255.779 47.568 257.673 48.2214C259.568 48.8747 261.201 49.8874 262.573 51.2594C263.945 52.566 265.121 54.1994 266.101 56.1594C267.081 58.054 267.996 60.2754 268.845 62.8234H269.923V45.8694H213.867V47.2414H224.745V113.563ZM455.442 113.578H444.564V115.645H476.12V113.578H465.242V47.2414H470.926C472.232 47.2414 473.702 47.372 475.336 47.6334C476.969 47.8294 478.602 48.45 480.236 49.4954C481.934 50.5407 483.535 52.2067 485.038 54.4934C486.606 56.7147 487.945 59.818 489.056 63.8034H490.134V45.8694H430.55V63.8034H431.628C432.738 59.818 434.045 56.7147 435.548 54.4934C437.116 52.2067 438.716 50.5407 440.35 49.4954C442.048 48.45 443.714 47.8294 445.348 47.6334C446.981 47.372 448.451 47.2414 449.758 47.2414H455.442V113.578ZM495.288 113.578H506.166V47.2414H495.288V45.8694H551.344V62.8234H550.266C549.417 60.2754 548.502 58.054 547.522 56.1594C546.542 54.1994 545.366 52.566 543.994 51.2594C542.622 49.8874 540.989 48.8747 539.094 48.2214C537.199 47.568 534.913 47.2414 532.234 47.2414H515.966V77.5234H522.336C524.492 77.5234 526.321 77.3274 527.824 76.9354C529.327 76.5434 530.601 75.8247 531.646 74.7794C532.757 73.6687 533.671 72.1987 534.39 70.3694C535.174 68.4747 535.925 66.0574 536.644 63.1174H537.722V93.5954H536.644C536.187 91.7007 535.697 89.8714 535.174 88.1074C534.717 86.3434 534.031 84.7754 533.116 83.4034C532.267 82.0313 531.091 80.9534 529.588 80.1693C528.151 79.32 526.256 78.8953 523.904 78.8953H515.966V113.578H534.488C538.081 113.578 541.054 113.522 543.406 112.019C545.823 110.451 547.783 108.622 549.286 106.531C550.789 104.375 551.899 102.154 552.618 99.8674C553.337 97.5807 553.794 95.686 553.99 94.1834H555.068V115.645H495.288V113.578ZM624.168 115.645H625.638V94.7714H624.56C623.907 97.254 623.155 99.7694 622.306 102.317C621.457 104.8 620.215 107.054 618.582 109.079C616.949 111.039 614.793 112.64 612.114 113.881C609.435 115.123 605.907 115.743 601.53 115.743C598.133 115.743 595.029 115.221 592.22 114.175C589.411 113.13 586.993 111.301 584.968 108.687C583.008 106.074 581.473 102.513 580.362 98.0054C579.251 93.4974 578.696 87.8134 578.696 80.9534C578.696 78.536 578.761 75.988 578.892 73.3093C579.088 70.5653 579.447 67.8867 579.97 65.2734C580.493 62.5947 581.244 60.0794 582.224 57.7274C583.269 55.31 584.641 53.2194 586.34 51.4554C588.039 49.626 590.129 48.1887 592.612 47.1433C595.095 46.0327 598.067 45.4774 601.53 45.4774C605.254 45.4774 608.357 46.0654 610.84 47.2414C613.388 48.352 615.479 49.8547 617.112 51.7494C618.745 53.5787 620.019 55.702 620.934 58.1194C621.849 60.5367 622.6 62.9867 623.188 65.4694H624.266V45.8694H622.796C622.339 46.392 621.816 46.882 621.228 47.3394C620.705 47.7313 619.791 47.9274 618.484 47.9274C617.504 47.9274 616.491 47.7313 615.446 47.3394C614.401 46.9474 613.257 46.5227 612.016 46.0654C610.775 45.5427 609.37 45.0854 607.802 44.6934C606.234 44.3014 604.437 44.1054 602.412 44.1054C597.381 44.1054 592.743 45.118 588.496 47.1433C584.249 49.1034 580.558 51.782 577.422 55.1794C574.286 58.5767 571.836 62.4967 570.072 66.9394C568.308 71.382 567.426 76.0534 567.426 80.9534C567.426 86.7027 568.504 91.766 570.66 96.1434C572.816 100.521 575.495 104.31 578.696 107.511C582.159 110.909 585.817 113.359 589.672 114.861C593.592 116.364 597.61 117.115 601.726 117.115C603.947 117.115 605.973 116.919 607.802 116.527C609.631 116.201 611.265 115.809 612.702 115.351C614.205 114.894 615.511 114.502 616.622 114.175C617.798 113.783 618.876 113.587 619.856 113.587C621.097 113.587 622.012 113.816 622.6 114.273C623.188 114.665 623.711 115.123 624.168 115.645ZM632.075 113.578H642.953V47.2414H632.075V45.8694H663.63V47.2414H652.753V79.2874H685.387V47.2414H674.509V45.8694H706.065V47.2414H695.187V113.578H706.065V115.645H674.509V113.578H685.387V80.6594H652.753V113.578H663.63V115.645H632.075V113.578ZM474.947 146.785L471.427 156.097H478.467L474.947 146.785ZM464.547 165.441H467.363L476.003 142.529H476.771L485.475 165.441H488.323V165.889H478.467V165.441H482.019L478.659 156.545H471.235L467.875 165.441H471.427V165.889H464.547V165.441ZM497.684 143.105H507.572V143.553H504.02L511.124 162.113L518.132 143.553H514.644V143.105H521.556V143.553H518.676L510.068 166.369H509.268L500.564 143.553H497.684V143.105ZM537.289 165.441H533.737V165.889H544.041V165.441H540.489V143.553H544.041V143.105H533.737V143.553H537.289V165.441ZM566.976 146.785L563.456 156.097H570.496L566.976 146.785ZM556.576 165.441H559.392L568.032 142.529H568.8L577.504 165.441H580.352V165.889H570.496V165.441H574.048L570.688 156.545H563.264L559.904 165.441H563.456V165.889H556.576V165.441ZM598.784 165.441H595.232V165.889H605.536V165.441H601.984V143.553H603.84C604.267 143.553 604.747 143.596 605.28 143.681C605.813 143.745 606.347 143.948 606.88 144.289C607.435 144.631 607.957 145.175 608.448 145.921C608.96 146.647 609.397 147.66 609.76 148.961H610.112V143.105H590.656V148.961H591.008C591.371 147.66 591.797 146.647 592.288 145.921C592.8 145.175 593.323 144.631 593.856 144.289C594.411 143.948 594.955 143.745 595.488 143.681C596.021 143.596 596.501 143.553 596.928 143.553H598.784V165.441ZM623.891 165.441H627.443V143.553H623.891V143.105H634.195V143.553H630.643V165.441H634.195V165.889H623.891V165.441ZM653.001 159.489C652.745 158.06 652.617 156.385 652.617 154.465C652.617 152.993 652.713 151.575 652.905 150.209C653.097 148.823 653.46 147.596 653.993 146.529C654.548 145.441 655.305 144.577 656.265 143.937C657.247 143.297 658.516 142.977 660.073 142.977C661.631 142.977 662.889 143.297 663.849 143.937C664.831 144.577 665.588 145.441 666.121 146.529C666.676 147.596 667.049 148.823 667.241 150.209C667.433 151.575 667.529 152.993 667.529 154.465C667.529 156.385 667.401 158.06 667.145 159.489C666.889 160.919 666.463 162.113 665.865 163.073C665.268 164.033 664.489 164.748 663.529 165.217C662.591 165.687 661.439 165.921 660.073 165.921C658.687 165.921 657.524 165.687 656.585 165.217C655.647 164.748 654.879 164.033 654.281 163.073C653.684 162.113 653.257 160.919 653.001 159.489ZM649.929 149.729C649.268 151.18 648.937 152.759 648.937 154.465C648.937 156.001 649.215 157.495 649.769 158.945C650.324 160.375 651.092 161.644 652.073 162.753C653.076 163.841 654.26 164.716 655.625 165.377C656.991 166.039 658.473 166.369 660.073 166.369C661.631 166.369 663.081 166.028 664.425 165.345C665.791 164.663 666.975 163.767 667.977 162.657C668.98 161.548 669.769 160.279 670.345 158.849C670.921 157.42 671.209 155.959 671.209 154.465C671.209 152.759 670.889 151.18 670.249 149.729C669.631 148.279 668.799 147.02 667.753 145.953C666.708 144.887 665.513 144.055 664.169 143.457C662.847 142.839 661.481 142.529 660.073 142.529C658.751 142.529 657.428 142.839 656.105 143.457C654.783 144.055 653.588 144.887 652.521 145.953C651.476 147.02 650.612 148.279 649.929 149.729ZM685.578 165.441H689.13V143.553H685.578V143.105H692.426L703.242 160.545H703.306V143.553H699.754V143.105H707.338V143.553H703.786V166.337H703.146L689.674 144.865H689.61V165.441H693.162V165.889H685.578V165.441Z" fill="#312783"/>
<path fill-rule="evenodd" clip-rule="evenodd" d="M111.875 72.997L124.795 65.3888L117.86 14.1316L104.72 1.51074L99.5142 2.24929L114.291 114.243L117.265 113.85L111.875 72.997ZM103.701 4.69151L102.879 4.81158L111.465 69.7566L121.555 63.8153L115.028 15.5705L103.701 4.69151Z" fill="#312783"/>
<path d="M102.879 4.81158L103.701 4.69151L115.028 15.5705L121.555 63.8153L111.465 69.7566L102.879 4.81158Z" fill="#312783"/>
<path fill-rule="evenodd" clip-rule="evenodd" d="M7.95923 115.627L7.89014 110.369L22.124 98.9964L73.8479 98.8398L79.6893 113.569H116.15V115.627L7.95923 115.627ZM10.9092 111.797L10.9201 113.568H76.431L71.8634 101.846L23.1793 101.993L10.9092 111.797Z" fill="#312783"/>
<path d="M10.9201 113.568L10.9092 111.797L23.1793 101.993L71.8634 101.846L76.431 113.568H10.9201Z" fill="#312783"/>
<path fill-rule="evenodd" clip-rule="evenodd" d="M51.1196 24.1363L55.3782 21.0586L72.8829 26.1254L102.839 68.2937L94.9437 81.0125L115.989 110.823L116.022 110.877L113.512 112.517L51.1196 24.1363ZM93.0648 78.351L99.2385 68.4056L71.0434 28.7161L55.9548 24.3486L55.2869 24.8342L93.0648 78.351Z" fill="#312783"/>
<path d="M93.0648 78.351L99.2385 68.4056L71.0434 28.7161L55.9548 24.3486L55.2869 24.8342L93.0648 78.351Z" fill="#312783"/>
<path fill-rule="evenodd" clip-rule="evenodd" d="M18.0874 66.1495L20.3896 61.4246L38.2234 57.6855L84.4701 80.8574L83.4208 95.7704L116.001 112.216L114.747 114.939L114.69 114.915L18.0874 66.1495ZM80.5165 94.3044L81.3371 82.6431L37.815 60.8364L22.443 64.0593L22.0799 64.8045L80.5165 94.3044Z" fill="#312783"/>
<path d="M81.3371 82.6431L80.5165 94.3044L22.0799 64.8045L22.443 64.0593L37.815 60.8364L81.3371 82.6431Z" fill="#312783"/>
</svg>
