<svg width="360" height="84" viewBox="0 0 360 84" fill="none" xmlns="http://www.w3.org/2000/svg">
<path fill-rule="evenodd" clip-rule="evenodd" d="M51.5012 56.7812V57.8225H74.3092V56.7812H59.4866L67.5191 36.1985H91.0452L98.8212 56.7864H90.6012V57.8225H106.523V56.7864H100.007L80.0112 3.76245H78.2332L58.0912 56.7812H51.5012ZM74.3092 35.1605H90.6012L82.4552 13.6105L74.3092 35.1605ZM182.824 40.3294C182.824 43.2694 183.02 45.8338 183.412 48.0224C183.804 50.2111 184.457 52.0404 185.372 53.5104C186.287 54.9804 187.463 56.0748 188.9 56.7934C190.337 57.5121 192.118 57.8714 194.241 57.8714C196.332 57.8714 198.096 57.5121 199.533 56.7934C201.003 56.0748 202.195 54.9804 203.11 53.5104C204.025 52.0404 204.678 50.2111 205.07 48.0224C205.462 45.8338 205.658 43.2694 205.658 40.3294C205.658 38.0754 205.511 35.9031 205.217 33.8124C204.923 31.6891 204.351 29.8108 203.502 28.1774C202.685 26.5114 201.526 25.1884 200.023 24.2084C198.553 23.2284 196.626 22.7384 194.241 22.7384C191.856 22.7384 189.913 23.2284 188.41 24.2084C186.94 25.1884 185.78 26.5114 184.931 28.1774C184.114 29.8108 183.559 31.6891 183.265 33.8124C182.971 35.9031 182.824 38.0754 182.824 40.3294ZM177.189 40.3294C177.189 37.7161 177.695 35.2988 178.708 33.0774C179.753 30.8561 181.076 28.9288 182.677 27.2954C184.31 25.6621 186.14 24.3881 188.165 23.4734C190.19 22.5261 192.216 22.0524 194.241 22.0524C196.397 22.0524 198.488 22.5261 200.513 23.4734C202.571 24.3881 204.4 25.6621 206.001 27.2954C207.602 28.9288 208.876 30.8561 209.823 33.0774C210.803 35.2988 211.293 37.7161 211.293 40.3294C211.293 42.6161 210.852 44.8538 209.97 47.0424C209.088 49.2311 207.879 51.1748 206.344 52.8734C204.809 54.5721 202.996 55.9441 200.905 56.9894C198.847 58.0348 196.626 58.5574 194.241 58.5574C191.791 58.5574 189.521 58.0511 187.43 57.0384C185.339 56.0258 183.526 54.6864 181.991 53.0204C180.488 51.3218 179.312 49.3781 178.463 47.1894C177.614 44.9681 177.189 42.6814 177.189 40.3294ZM155.547 38.7614H151.039V23.6204C151.463 23.5551 151.97 23.5224 152.558 23.5224C153.178 23.4898 153.783 23.4734 154.371 23.4734C155.22 23.4734 156.069 23.5551 156.919 23.7184C157.801 23.8818 158.585 24.2248 159.271 24.7474C159.989 25.2701 160.561 26.0541 160.986 27.0994C161.443 28.1121 161.672 29.4678 161.672 31.1664C161.672 32.6691 161.525 33.9104 161.231 34.8904C160.937 35.8704 160.512 36.6544 159.957 37.2424C159.434 37.7978 158.797 38.1898 158.046 38.4184C157.294 38.6471 156.461 38.7614 155.547 38.7614ZM146.139 56.7865H140.7V57.8224H156.478V56.7865H151.039V39.4474H155.939C156.494 39.4474 157.147 39.4964 157.899 39.5944C158.65 39.6598 159.369 39.9048 160.055 40.3294C160.773 40.7541 161.394 41.4238 161.917 42.3384C162.439 43.2531 162.766 44.5271 162.897 46.1604L163.24 50.6194C163.338 51.8608 163.501 52.9551 163.73 53.9024C163.991 54.8171 164.383 55.6011 164.906 56.2544C165.428 56.8751 166.114 57.3488 166.964 57.6754C167.846 58.0021 168.94 58.1654 170.247 58.1654C170.933 58.1654 171.504 58.1164 171.962 58.0184C172.452 57.9531 172.86 57.8551 173.187 57.7244C173.513 57.5938 173.775 57.4631 173.971 57.3324C174.199 57.1691 174.395 57.0221 174.559 56.8914L174.118 56.3524C173.758 56.7118 173.35 56.9731 172.893 57.1364C172.435 57.2998 171.994 57.3814 171.57 57.3814C170.622 57.3814 169.936 57.0384 169.512 56.3524C169.087 55.6664 168.777 54.8988 168.581 54.0494C168.45 53.4941 168.352 52.8081 168.287 51.9914C168.254 51.1748 168.205 50.3254 168.14 49.4434C168.107 48.5614 168.042 47.7121 167.944 46.8954C167.878 46.0461 167.748 45.2948 167.552 44.6414C167.225 43.5308 166.67 42.6324 165.886 41.9464C165.102 41.2278 164.236 40.6561 163.289 40.2314C162.374 39.8068 161.459 39.5128 160.545 39.3494C159.663 39.1534 158.96 39.0228 158.438 38.9574V38.8594C160.332 38.6308 161.851 38.1898 162.995 37.5364C164.138 36.8504 165.004 36.1154 165.592 35.3314C166.212 34.5148 166.604 33.7308 166.768 32.9794C166.964 32.1954 167.062 31.5584 167.062 31.0684C167.062 30.0884 166.817 29.0431 166.327 27.9324C165.869 26.8218 165.069 25.8254 163.926 24.9434C162.652 23.9308 161.28 23.3264 159.81 23.1304C158.34 22.9018 156.641 22.7874 154.714 22.7874C154.322 22.7874 153.93 22.8038 153.538 22.8364H152.362L151.186 22.9344H150.01H140.7V23.6204H146.139V56.7865ZM112.373 56.7812H106.934V57.8224H136.824V47.0914H136.285C136.187 47.8428 135.958 48.7901 135.599 49.9334C135.239 51.0768 134.684 52.1874 133.933 53.2654C133.181 54.3108 132.201 55.2254 130.993 56.0094C129.817 56.7608 128.33 56.7812 126.534 56.7812H117.273V39.4474H121.242C122.418 39.4474 123.365 39.6598 124.084 40.0844C124.835 40.4764 125.423 41.0154 125.848 41.7014C126.305 42.3874 126.648 43.1714 126.877 44.0534C127.138 44.9354 127.383 45.8501 127.612 46.7974H128.151V31.5584H127.612C127.252 33.0284 126.877 34.2371 126.485 35.1844C126.125 36.0991 125.668 36.8341 125.113 37.3894C124.59 37.9121 123.953 38.2714 123.202 38.4674C122.45 38.6634 121.536 38.7614 120.458 38.7614H117.273V23.6204H125.407C126.746 23.6204 127.889 23.7838 128.837 24.1104C129.784 24.4371 130.601 24.9434 131.287 25.6294C131.973 26.2828 132.561 27.0994 133.051 28.0794C133.541 29.0268 133.998 30.1374 134.423 31.4114H134.962V22.9344H106.934V23.6204H112.373V56.7812ZM227.721 56.789H222.282V57.8224H238.06V56.789H232.621V23.6204H235.463C236.116 23.6204 236.851 23.6858 237.668 23.8164C238.485 23.9144 239.301 24.2248 240.118 24.7474C240.967 25.2701 241.768 26.1031 242.519 27.2464C243.303 28.3571 243.973 29.9088 244.528 31.9014H245.067V22.9344H215.275V31.9014H215.814C216.369 29.9088 217.023 28.3571 217.774 27.2464C218.558 26.1031 219.358 25.2701 220.175 24.7474C221.024 24.2248 221.857 23.9144 222.674 23.8164C223.491 23.6858 224.226 23.6204 224.879 23.6204H227.721V56.789ZM247.644 56.789H253.083V23.6204H247.644V22.9344H275.672V31.4114H275.133C274.708 30.1374 274.251 29.0268 273.761 28.0794C273.271 27.0994 272.683 26.2828 271.997 25.6294C271.311 24.9434 270.494 24.4371 269.547 24.1104C268.6 23.7838 267.456 23.6204 266.117 23.6204H257.983V38.7614H261.168C262.246 38.7614 263.161 38.6634 263.912 38.4674C264.663 38.2714 265.3 37.9121 265.823 37.3894C266.378 36.8341 266.836 36.0991 267.195 35.1844C267.587 34.2371 267.963 33.0284 268.322 31.5584H268.861V46.7974H268.322C268.093 45.8501 267.848 44.9354 267.587 44.0534C267.358 43.1714 267.015 42.3874 266.558 41.7014C266.133 41.0154 265.545 40.4764 264.794 40.0844C264.075 39.6598 263.128 39.4474 261.952 39.4474H257.983V56.789H267.244C269.041 56.789 270.527 56.7608 271.703 56.0094C272.912 55.2254 273.892 54.3108 274.643 53.2654C275.394 52.1874 275.95 51.0768 276.309 49.9334C276.668 48.7901 276.897 47.8428 276.995 47.0914H277.534V57.8224H247.644V56.789ZM312.084 57.8224H312.819V47.3854H312.28C311.953 48.6268 311.578 49.8844 311.153 51.1584C310.728 52.3998 310.108 53.5268 309.291 54.5394C308.474 55.5194 307.396 56.3198 306.057 56.9404C304.718 57.5611 302.954 57.8714 300.765 57.8714C299.066 57.8714 297.515 57.6101 296.11 57.0874C294.705 56.5648 293.497 55.6501 292.484 54.3434C291.504 53.0368 290.736 51.2564 290.181 49.0024C289.626 46.7484 289.348 43.9064 289.348 40.4764C289.348 39.2678 289.381 37.9938 289.446 36.6544C289.544 35.2824 289.724 33.9431 289.985 32.6364C290.246 31.2971 290.622 30.0394 291.112 28.8634C291.635 27.6548 292.321 26.6094 293.17 25.7274C294.019 24.8128 295.065 24.0941 296.306 23.5714C297.547 23.0161 299.034 22.7384 300.765 22.7384C302.627 22.7384 304.179 23.0324 305.42 23.6204C306.694 24.1758 307.739 24.9271 308.556 25.8744C309.373 26.7891 310.01 27.8508 310.467 29.0594C310.924 30.2681 311.3 31.4931 311.594 32.7344H312.133V22.9344H311.398C311.169 23.1958 310.908 23.4408 310.614 23.6694C310.353 23.8654 309.895 23.9634 309.242 23.9634C308.752 23.9634 308.246 23.8654 307.723 23.6694C307.2 23.4734 306.629 23.2611 306.008 23.0324C305.387 22.7711 304.685 22.5424 303.901 22.3464C303.117 22.1504 302.219 22.0524 301.206 22.0524C298.691 22.0524 296.371 22.5588 294.248 23.5714C292.125 24.5514 290.279 25.8908 288.711 27.5894C287.143 29.2881 285.918 31.2481 285.036 33.4694C284.154 35.6908 283.713 38.0264 283.713 40.4764C283.713 43.3511 284.252 45.8828 285.33 48.0714C286.408 50.2601 287.747 52.1548 289.348 53.7554C291.079 55.4541 292.909 56.6791 294.836 57.4304C296.796 58.1818 298.805 58.5574 300.863 58.5574C301.974 58.5574 302.986 58.4594 303.901 58.2634C304.816 58.1001 305.632 57.9041 306.351 57.6754C307.102 57.4468 307.756 57.2508 308.311 57.0874C308.899 56.8914 309.438 56.7934 309.928 56.7934C310.549 56.7934 311.006 56.9078 311.3 57.1364C311.594 57.3324 311.855 57.5611 312.084 57.8224ZM316.037 56.789H321.476V23.6204H316.037V22.9344H331.815V23.6204H326.376V39.6434H342.693V23.6204H337.254V22.9344H353.032V23.6204H347.593V56.789H353.032V57.8224H337.254V56.789H342.693V40.3294H326.376V56.789H331.815V57.8224H316.037V56.789ZM237.473 73.3923L235.713 78.0483H239.233L237.473 73.3923ZM232.273 82.7204H233.681L238.001 71.2643H238.385L242.737 82.7204H244.161V82.9444H239.233V82.7204H241.009L239.329 78.2723H235.617L233.937 82.7204H235.713V82.9444H232.273V82.7204ZM248.842 71.5524H253.786V71.7764H252.01L255.562 81.0564L259.066 71.7764H257.322V71.5524H260.778V71.7764H259.338L255.034 83.1843H254.634L250.282 71.7764H248.842V71.5524ZM268.645 82.7204H266.869V82.9444H272.021V82.7204H270.245V71.7764H272.021V71.5524H266.869V71.7764H268.645V82.7204ZM283.488 73.3923L281.728 78.0483H285.248L283.488 73.3923ZM278.288 82.7204H279.696L284.016 71.2643H284.4L288.752 82.7204H290.176V82.9444H285.248V82.7204H287.024L285.344 78.2723H281.632L279.952 82.7204H281.728V82.9444H278.288V82.7204ZM299.392 82.7204H297.616V82.9444H302.768V82.7204H300.992V71.7764H301.92C302.133 71.7764 302.373 71.7977 302.64 71.8403C302.907 71.8723 303.173 71.9737 303.44 72.1443C303.717 72.315 303.979 72.587 304.224 72.9603C304.48 73.323 304.699 73.8297 304.88 74.4803H305.056V71.5524H295.328V74.4803H295.504C295.685 73.8297 295.899 73.323 296.144 72.9603C296.4 72.587 296.661 72.315 296.928 72.1443C297.205 71.9737 297.477 71.8723 297.744 71.8403C298.011 71.7977 298.251 71.7764 298.464 71.7764H299.392V82.7204ZM311.946 82.7204H313.722V71.7764H311.946V71.5524H317.098V71.7764H315.322V82.7204H317.098V82.9444H311.946V82.7204ZM326.501 79.7444C326.373 79.0297 326.309 78.1924 326.309 77.2323C326.309 76.4964 326.357 75.787 326.453 75.1043C326.549 74.411 326.73 73.7977 326.997 73.2643C327.274 72.7204 327.653 72.2883 328.133 71.9684C328.623 71.6483 329.258 71.4883 330.037 71.4883C330.815 71.4883 331.445 71.6483 331.925 71.9684C332.415 72.2883 332.794 72.7204 333.061 73.2643C333.338 73.7977 333.525 74.411 333.621 75.1043C333.717 75.787 333.765 76.4964 333.765 77.2323C333.765 78.1924 333.701 79.0297 333.573 79.7444C333.445 80.459 333.231 81.0564 332.933 81.5363C332.634 82.0163 332.245 82.3737 331.765 82.6084C331.295 82.843 330.719 82.9603 330.037 82.9603C329.343 82.9603 328.762 82.843 328.293 82.6084C327.823 82.3737 327.439 82.0163 327.141 81.5363C326.842 81.0564 326.629 80.459 326.501 79.7444ZM324.965 74.8643C324.634 75.5897 324.469 76.379 324.469 77.2323C324.469 78.0004 324.607 78.747 324.885 79.4724C325.162 80.187 325.546 80.8217 326.037 81.3763C326.538 81.9203 327.13 82.3577 327.813 82.6884C328.495 83.019 329.237 83.1843 330.037 83.1843C330.815 83.1843 331.541 83.0137 332.213 82.6723C332.895 82.331 333.487 81.883 333.989 81.3284C334.49 80.7737 334.885 80.139 335.173 79.4243C335.461 78.7097 335.605 77.979 335.605 77.2323C335.605 76.379 335.445 75.5897 335.125 74.8643C334.815 74.139 334.399 73.5097 333.877 72.9763C333.354 72.443 332.757 72.027 332.085 71.7283C331.423 71.419 330.741 71.2643 330.037 71.2643C329.375 71.2643 328.714 71.419 328.053 71.7283C327.391 72.027 326.794 72.443 326.261 72.9763C325.738 73.5097 325.306 74.139 324.965 74.8643ZM342.789 82.7204H344.565V71.7764H342.789V71.5524H346.213L351.621 80.2724H351.653V71.7764H349.877V71.5524H353.669V71.7764H351.893V83.1684H351.573L344.837 72.4323H344.805V82.7204H346.581V82.9444H342.789V82.7204Z" fill="white"/>
<path fill-rule="evenodd" clip-rule="evenodd" d="M55.9372 36.4985L62.3973 32.6944L58.93 7.06579L52.3598 0.755371L49.757 1.12465L57.1452 57.1214L58.6323 56.9252L55.9372 36.4985ZM51.8503 2.34576L51.4394 2.40579L55.7325 34.8783L60.7772 31.9077L57.5137 7.78527L51.8503 2.34576Z" fill="white"/>
<path d="M51.4394 2.40579L51.8503 2.34576L57.5137 7.78527L60.7772 31.9077L55.7325 34.8783L51.4394 2.40579Z" fill="white"/>
<path fill-rule="evenodd" clip-rule="evenodd" d="M3.97961 57.8134L3.94507 55.1845L11.062 49.4982L36.924 49.4199L39.8447 56.7844H58.0749V57.8137L3.97961 57.8134ZM5.45458 55.8984L5.46003 56.7842H38.2155L35.9317 50.9229L11.5896 50.9966L5.45458 55.8984Z" fill="white"/>
<path d="M5.46003 56.7842L5.45458 55.8984L11.5896 50.9966L35.9317 50.9229L38.2155 56.7842H5.46003Z" fill="white"/>
<path fill-rule="evenodd" clip-rule="evenodd" d="M25.5597 12.0684L27.689 10.5295L36.4413 13.063L51.4193 34.1471L47.4717 40.5065L57.9944 55.4118L58.011 55.4385L56.756 56.2585L25.5597 12.0684ZM46.5323 39.1757L49.6191 34.203L35.5216 14.3583L27.9773 12.1746L27.6433 12.4173L46.5323 39.1757Z" fill="white"/>
<path d="M46.5323 39.1757L49.6191 34.203L35.5216 14.3583L27.9773 12.1746L27.6433 12.4173L46.5323 39.1757Z" fill="white"/>
<path fill-rule="evenodd" clip-rule="evenodd" d="M9.0437 33.075L10.1948 30.7125L19.1117 28.843L42.2351 40.4289L41.7104 47.8854L58.0007 56.1083L57.3737 57.47L57.3448 57.4575L9.0437 33.075ZM40.2583 47.1524L40.6685 41.3218L18.9075 30.4184L11.2215 32.0299L11.04 32.4025L40.2583 47.1524Z" fill="white"/>
<path d="M40.6685 41.3218L40.2583 47.1524L11.04 32.4025L11.2215 32.0299L18.9075 30.4184L40.6685 41.3218Z" fill="white"/>
</svg>
